<?xml version="1.0" encoding="UTF-8"?>
<svg version="1.1" xmlns="http://www.w3.org/2000/svg" width="100" height="100">
  <defs>
    <!-- Background Gradient -->
    <linearGradient id="mainGradient" x1="0%" y1="0%" x2="100%" y2="100%">
      <stop offset="0%" stop-color="#74ebd5"/>
      <stop offset="100%" stop-color="#9face6"/>
    </linearGradient>

    <!-- Inner shape gradient -->
    <linearGradient id="shapeGradient" x1="0%" y1="0%" x2="100%" y2="0%">
      <stop offset="0%" stop-color="#ff9a9e"/>
      <stop offset="100%" stop-color="#fad0c4"/>
    </linearGradient>

    <!-- Glow filter -->
    <filter id="glow" x="-20%" y="-20%" width="140%" height="140%">
      <feDropShadow dx="0" dy="0" stdDeviation="3" flood-color="#000" flood-opacity="0.2"/>
    </filter>
  </defs>

  <!-- Outer shape with smooth rounded corners -->
  <rect x="6" y="6" width="88" height="88" rx="12" ry="12" fill="url(#mainGradient)" filter="url(#glow)"/>

  <!-- Character silhouette with rounded joins -->
  <path d="M0 0 C3.95 2.13 6.42 3.77 8 8 C8 10.3 8 10.3 7.63 12.63 
           C7.51 13.4 7.4 14.18 7.29 14.98 C7.15 15.98 7.15 15.98 7 17 
           C7 17.66 7 18.32 7 19 C7.93 19.72 8.86 20.44 9.81 21.19 
           C13.28 23.98 14.67 26.7 16 31 C16.25 34.88 16.25 34.88 16 38 
           C14.21 39.79 11.8 39.13 9.42 39.14 C8.64 39.14 7.87 39.13 7.06 39.13 
           C5.87 39.13 5.87 39.13 4.65 39.14 C2.97 39.14 1.28 39.13 -0.4 39.13 
           C-2.99 39.12 -5.58 39.13 -8.16 39.14 C-9.8 39.14 -11.43 39.13 -13.06 39.13 
           C-13.84 39.13 -14.62 39.14 -15.42 39.14 C-20.88 39.11 -20.88 39.11 -22 38 
           C-22.63 32.04 -21.84 28.7 -18.45 23.77 C-16.55 21.45 -14.46 19.69 -12 18 
           C-12.33 17.43 -12.66 16.87 -13 16.28 C-14.66 12.49 -14.14 8.91 -13 5 
           C-8.94 0.84 -5.77 -0.56 0 0 Z 
           M-4 5 C-5.65 6.65 -7.3 8.3 -9 10 C-7.93 12.92 -7.22 14.78 -5 17 
           C-1.87 16.84 -0.4 16.36 1.94 14.25 C3.27 12 3.27 12 2.5 9.38 
           C0.67 6.48 -0.77 5.94 -4 5 Z 
           M-14.31 27.44 C-16.25 30.08 -16.25 30.08 -17 34 
           C-7.76 34 1.48 34 11 34 
           C8.33 26.97 8.33 26.97 3 23 
           C-4.11 21.09 -9.1 21.94 -14.31 27.44 Z"
        fill="url(#shapeGradient)" transform="translate(53,41)" stroke="none" stroke-linejoin="round" stroke-linecap="round"/>

  <!-- Decorative rectangles with semi-transparent white -->
  <rect x="18" y="16" width="10" height="5" rx="2" ry="2" fill="#ffffffcc"/>
  <rect x="52" y="16" width="9" height="5" rx="2" ry="2" fill="#ffffffcc"/>
  <rect x="35" y="16" width="9" height="5" rx="2" ry="2" fill="#ffffffcc"/>
</svg>
